<?xml version="1.0" encoding="UTF-8" standalone="no"?>
<!-- Created with Inkscape (http://www.inkscape.org/) -->

<svg
   xmlns:dc="http://purl.org/dc/elements/1.1/"
   xmlns:cc="http://creativecommons.org/ns#"
   xmlns:rdf="http://www.w3.org/1999/02/22-rdf-syntax-ns#"
   xmlns:svg="http://www.w3.org/2000/svg"
   xmlns="http://www.w3.org/2000/svg"
   xmlns:xlink="http://www.w3.org/1999/xlink"
   version="1.1"
   width="38"
   height="35"
   id="svg3191">
  <defs
     id="defs3193">
    <linearGradient
       x1="22.040228"
       y1="10.692341"
       x2="45.964161"
       y2="50.929665"
       id="linearGradient1487"
       xlink:href="#linearGradient2856"
       gradientUnits="userSpaceOnUse"
       gradientTransform="matrix(0,1,1,0,0.9512,-2)" />
    <linearGradient
       id="linearGradient2856">
      <stop
         id="stop2858"
         style="stop-color:#3c44dc;stop-opacity:1"
         offset="0" />
      <stop
         id="stop2860"
         style="stop-color:#0d1f6a;stop-opacity:1"
         offset="1" />
    </linearGradient>
    <linearGradient
       id="linearGradient3630">
      <stop
         id="stop3632"
         style="stop-color:#d2d0f3;stop-opacity:1"
         offset="0" />
      <stop
         id="stop3634"
         style="stop-color:#1c3db8;stop-opacity:1"
         offset="1" />
    </linearGradient>
    <linearGradient
       id="linearGradient3702">
      <stop
         id="stop3704"
         style="stop-color:#ced1f2;stop-opacity:1"
         offset="0" />
      <stop
         id="stop3706"
         style="stop-color:#1d42c9;stop-opacity:0"
         offset="1" />
    </linearGradient>
    <linearGradient
       x1="1.6304866"
       y1="16.376432"
       x2="1.7526238"
       y2="48.498569"
       id="linearGradient3238"
       xlink:href="#linearGradient3702"
       gradientUnits="userSpaceOnUse"
       gradientTransform="matrix(0,1,1,0,-5.4375007,29.008929)" />
    <radialGradient
       cx="-15.475302"
       cy="7.0983443"
       r="17.099951"
       fx="-15.475302"
       fy="7.0983443"
       id="radialGradient3240"
       xlink:href="#linearGradient3630"
       gradientUnits="userSpaceOnUse"
       gradientTransform="matrix(-0.131601,1.11695,-1.05762,-0.124616,33.357,39.5849)" />
    <linearGradient
       x1="22.040228"
       y1="10.692341"
       x2="45.964161"
       y2="50.929665"
       id="linearGradient3242"
       xlink:href="#linearGradient2856"
       gradientUnits="userSpaceOnUse"
       gradientTransform="matrix(0,1,1,0,-12.048801,-3.4285712)" />
  </defs>
  <metadata
     id="metadata3196">
    <rdf:RDF>
      <cc:Work
         rdf:about="">
        <dc:format>image/svg+xml</dc:format>
        <dc:type
           rdf:resource="http://purl.org/dc/dcmitype/StillImage" />
        <dc:title></dc:title>
      </cc:Work>
    </rdf:RDF>
  </metadata>
  <g
     transform="translate(0,-13)"
     id="layer1">
    <path
       d="m 0.99999933,20.571429 c 0,-1 0.99999997,-1 0.99999997,-1 0,0 16.0488017,0 17.0000007,0 0.0488,-1 0,-5 0,-5 0.0091,-0.447249 0.109074,-0.846408 0.523002,-1.016051 0.413928,-0.169642 0.889064,-0.0774 1.209447,0.234801 l 15.999999,16 c 0.421803,0.435433 0.421803,1.127067 0,1.5625 l -15.999999,16 C 20.412066,47.66488 19.93693,47.757122 19.523002,47.58748 19.109074,47.417837 19.009133,47.018678 19,46.571429 c 0,0 0,-4 0,-5 -1,0 -17.0488017,0 -17.0488017,0 0,0 -0.99999997,0 -0.99999997,-1 0,-6 0.0488,-14 0.0488,-20 z"
       id="path3094"
       style="fill:url(#linearGradient3242);fill-opacity:1;stroke:none" />
    <path
       d="m 41.78125,15.15625 c -5.902981,0.0013 -13.64333,0.06118 -19.5625,0.0625 l 0,16.78125 a 1.2184365,1.2184365 0 0 1 -1.15625,1.21875 c -1.0866,0.05303 -3.993307,0.0082 -4.59375,0 L 32,48.75 47.53125,33.21875 43,33.21875 A 1.2184365,1.2184365 0 0 1 41.78125,32 l 0,-16.84375 z"
       transform="matrix(0,1,1,0,-13.000001,-1.4285702)"
       id="path3096"
       style="fill:url(#radialGradient3240);fill-opacity:1;stroke:none" />
    <path
       d="m 9.0312503,21.790179 c 4.1173137,0 9.2057157,0.03699 9.7499997,0 C 22,21.571429 20,17.571429 22,18.571429 c 1.999999,1 11.999999,12 11.999999,12 L 22.9375,41.508929 C 20,33.571429 15.723932,26.209393 9.0312503,21.790179 z"
       id="path3098"
       style="fill:url(#linearGradient3238);fill-opacity:1;stroke:none" />
  </g>
</svg>
