<?xml version="1.0" encoding="UTF-8" standalone="no"?>
<!-- Created with Inkscape (http://www.inkscape.org/) -->

<svg
   xmlns:dc="http://purl.org/dc/elements/1.1/"
   xmlns:cc="http://creativecommons.org/ns#"
   xmlns:rdf="http://www.w3.org/1999/02/22-rdf-syntax-ns#"
   xmlns:svg="http://www.w3.org/2000/svg"
   xmlns="http://www.w3.org/2000/svg"
   xmlns:xlink="http://www.w3.org/1999/xlink"
   version="1.1"
   width="45"
   height="45"
   id="svg3240">
  <defs
     id="defs3242">
    <linearGradient
       x1="127.19796"
       y1="18.49473"
       x2="127.19796"
       y2="47.546875"
       id="linearGradient2243"
       xlink:href="#linearGradient3257"
       gradientUnits="userSpaceOnUse" />
    <linearGradient
       id="linearGradient3257">
      <stop
         id="stop3259"
         style="stop-color:#ffffff;stop-opacity:1"
         offset="0" />
      <stop
         id="stop3261"
         style="stop-color:#ffffff;stop-opacity:0"
         offset="1" />
    </linearGradient>
  </defs>
  <metadata
     id="metadata3245">
    <rdf:RDF>
      <cc:Work
         rdf:about="">
        <dc:format>image/svg+xml</dc:format>
        <dc:type
           rdf:resource="http://purl.org/dc/dcmitype/StillImage" />
        <dc:title></dc:title>
      </cc:Work>
    </rdf:RDF>
  </metadata>
  <g
     transform="translate(-1.307393,-1.5058366)"
     id="layer1">
    <path
       d="m 690.10152,908.54846 a 35.10146,35.10146 0 1 1 -70.20292,0 35.10146,35.10146 0 1 1 70.20292,0 z"
       transform="matrix(0.628493,0,0,0.628493,-387.66295,-547.01635)"
       id="path3676"
       style="fill:#ef2929;fill-opacity:1;fill-rule:evenodd;stroke:none" />
    <g
       transform="matrix(0.582409,0,0,0.62445,-334.67195,-465.94735)"
       id="g3750"
       style="fill:#a40000;stroke:none">
      <path
         d="m 649.09375,892 c -7.61853,2.48999 -13.15624,9.60548 -13.15625,18.0625 2e-5,10.525 8.5375,19.06249 19.0625,19.0625 10.525,-3e-5 19.06249,-8.5375 19.0625,-19.0625 -2e-5,-8.45792 -5.56444,-15.57409 -13.1875,-18.0625 l 0,6.8125 c 4.06728,2.13572 6.90625,6.34059 6.90625,11.25 10e-6,7.04627 -5.73497,12.78125 -12.78125,12.78125 -7.04628,10e-6 -12.78125,-5.73497 -12.78125,-12.78125 -2e-5,-4.90659 2.80869,-9.1136 6.875,-11.25 l 0,-6.8125 z"
         transform="matrix(0.935483,0,0,0.935483,3.10089,-64.4716)"
         id="path3752"
         style="fill:#a40000;fill-opacity:1;fill-rule:evenodd;stroke:none" />
      <path
         d="m 651.78125,887.90625 0,22.625 6.4375,0 0,-22.625 -6.4375,0 z"
         transform="matrix(0.935483,0,0,0.935483,3.10089,-64.4716)"
         id="path3754"
         style="fill:#a40000;fill-opacity:1;fill-rule:evenodd;stroke:none" />
    </g>
    <g
       transform="matrix(0.582409,0,0,0.582409,-334.67195,-433.73735)"
       id="g3756"
       style="fill:#eeeeec;stroke:none">
      <path
         d="m 649.09375,892 c -7.61853,2.48999 -13.15624,9.60548 -13.15625,18.0625 2e-5,10.525 8.5375,19.06249 19.0625,19.0625 10.525,-3e-5 19.06249,-8.5375 19.0625,-19.0625 -2e-5,-8.45792 -5.56444,-15.57409 -13.1875,-18.0625 l 0,6.8125 c 4.06728,2.13572 6.90625,6.34059 6.90625,11.25 10e-6,7.04627 -5.73497,12.78125 -12.78125,12.78125 -7.04628,10e-6 -12.78125,-5.73497 -12.78125,-12.78125 -2e-5,-4.90659 2.80869,-9.1136 6.875,-11.25 l 0,-6.8125 z"
         transform="matrix(0.935483,0,0,0.935483,3.10089,-64.4716)"
         id="path3758"
         style="fill:#eeeeec;fill-opacity:1;fill-rule:evenodd;stroke:none" />
      <path
         d="m 651.78125,887.90625 0,22.625 6.4375,0 0,-22.625 -6.4375,0 z"
         transform="matrix(0.935483,0,0,0.935483,3.10089,-64.4716)"
         id="path3760"
         style="fill:#eeeeec;fill-opacity:1;fill-rule:evenodd;stroke:none" />
    </g>
    <path
       d="m 149.62659,34.778526 a 22.42863,16.2838 0 1 1 -44.85726,0 22.42863,16.2838 0 1 1 44.85726,0 z"
       transform="matrix(0.701556,0,0,0.736253,-65.236555,-9.6146455)"
       id="path3678"
       style="opacity:0.75;fill:url(#linearGradient2243);fill-opacity:1;fill-rule:evenodd;stroke:none" />
  </g>
</svg>
