<?xml version="1.0" encoding="UTF-8" standalone="no"?>
<!-- Created with Inkscape (http://www.inkscape.org/) -->

<svg
   xmlns:dc="http://purl.org/dc/elements/1.1/"
   xmlns:cc="http://creativecommons.org/ns#"
   xmlns:rdf="http://www.w3.org/1999/02/22-rdf-syntax-ns#"
   xmlns:svg="http://www.w3.org/2000/svg"
   xmlns="http://www.w3.org/2000/svg"
   version="1.1"
   width="135.81"
   height="135.772"
   viewBox="0 0 135.81 135.772"
   id="Layer_1"
   style="overflow:visible">
  <metadata
     id="metadata3">
    <rdf:RDF>
      <cc:Work
         rdf:about="">
        <dc:title></dc:title>
        <dc:description />
        <dc:subject>
          <rdf:Bag>
            <rdf:li>unsorted</rdf:li>
          </rdf:Bag>
        </dc:subject>
        <dc:publisher>
          <cc:Agent
             rdf:about="http://www.openclipart.org/">
            <dc:title>Open Clip Art Library</dc:title>
          </cc:Agent>
        </dc:publisher>
        <dc:creator>
          <cc:Agent>
            <dc:title>Architetto Francesco Rollandin</dc:title>
          </cc:Agent>
        </dc:creator>
        <dc:rights>
          <cc:Agent>
            <dc:title>Architetto Francesco Rollandin</dc:title>
          </cc:Agent>
        </dc:rights>
        <dc:date />
        <dc:format>image/svg+xml</dc:format>
        <dc:type
           rdf:resource="http://purl.org/dc/dcmitype/StillImage" />
        <cc:license
           rdf:resource="http://web.resource.org/cc/PublicDomain" />
        <dc:language>en</dc:language>
      </cc:Work>
      <cc:License
         rdf:about="http://web.resource.org/cc/PublicDomain">
        <cc:permits
           rdf:resource="http://web.resource.org/cc/Reproduction" />
        <cc:permits
           rdf:resource="http://web.resource.org/cc/Distribution" />
        <cc:permits
           rdf:resource="http://web.resource.org/cc/DerivativeWorks" />
      </cc:License>
    </rdf:RDF>
  </metadata>
  <defs
     id="defs23" />
  <g
     id="g3">
    <path
       d="m 0,67.863 c 0,34.599 27.14,64.461 61.622,67.631 34.495,3.171 66.772,-21.085 73.083,-55.199 C 141.014,46.191 119.727,11.835 86.302,2.461 52.865,-6.917 16.735,11.289 4.405,43.747 1.485,51.434 0,59.64 0,67.863"
       id="path5"
       style="fill:#970f00" />
    <radialGradient
       cx="67.919899"
       cy="67.862297"
       r="63.1152"
       id="XMLID_2_"
       gradientUnits="userSpaceOnUse">
      <stop
         id="stop8"
         style="stop-color:#f28888;stop-opacity:1"
         offset="0" />
      <stop
         id="stop10"
         style="stop-color:#d82a2a;stop-opacity:1"
         offset="1" />
    </radialGradient>
    <path
       d="m 4.804,67.863 c 0,34.395 28.719,63.115 63.115,63.115 34.396,0 63.116,-28.72 63.116,-63.115 0,-34.396 -28.72,-63.116 -63.116,-63.116 -34.396,0 -63.115,28.719 -63.115,63.116"
       id="path12"
       style="fill:url(#XMLID_2_)" />
    <path
       d="m 10.891,43.33 c -5.1,29.726 12.654,59.582 41.202,69.309 30.278,10.318 64.349,-4.932 77.011,-34.26 -6.084,35.493 -42.578,58.827 -77.351,49.442 C 15.85,118.132 -3.907,77.562 10.891,43.33"
       id="path14"
       style="fill:#b20d0d" />
    <path
       d="m 28.499,39.845 c 8.729,1.805 18.779,-10.56 26.347,-13.707 14.14,-5.876 31.802,-3.146 44.611,4.856 13.55,8.466 23.188,24.727 24.67,40.689 0.005,0.046 0.005,0.053 0.001,0.024 -1,-9.667 -0.325,-18.754 -4.006,-28.096 C 114.023,28.123 100.832,15.996 84.93,11.123 68.487,6.084 50.506,9.291 36.34,18.891 31.966,21.857 15.129,37.079 28.499,39.845"
       id="path16"
       style="fill:#ef5656" />
    <path
       d="M 105.449,85.473 C 99.826,79.851 94.203,74.228 88.581,68.603 87.078,67.1 100.904,54.882 102.9,52.886 c 7.668,-7.671 0.39,-12.376 -5.665,-18.431 -2.85,-2.848 -6.832,-7.404 -10.95,-3.286 -3.038,1.911 -5.73,5.731 -8.257,8.257 -2.997,2.997 -5.994,5.994 -8.991,8.993 -0.717,0.717 -4.819,-4.182 -5.51,-4.874 C 59.433,39.451 49.589,25.07 43.046,31.61 c -3.942,3.94 -16.97,12.818 -10.744,19.045 5.749,5.749 11.499,11.499 17.25,17.25 -4.596,4.594 -24.237,18.569 -17.129,25.675 3.683,3.681 7.755,9.715 12.468,12.075 5.366,2.684 11.375,-6.134 14.516,-9.274 1.454,-1.454 8.466,-10.155 10.008,-8.612 4.772,4.772 9.547,9.547 14.321,14.321 4.524,4.523 7.966,4.795 12.61,0.15 3.387,-3.387 14.661,-11.218 9.103,-16.767"
       id="path18"
       style="fill:#ffffff" />
    <path
       d="m 47.314,28.939 c -4.432,0 -8.753,6.244 -11.542,9.032 -3.562,3.562 -9.015,8.048 -3.894,13.168 3.525,3.525 7.05,7.052 10.577,10.579 2.586,2.585 7.481,4.89 4.503,7.865 -4.685,4.688 -22.354,17.082 -14.989,24.451 3.37,3.369 6.739,6.738 10.108,10.108 4.631,4.631 8.562,1.91 12.281,-1.808 3.98,-3.979 7.96,-7.958 11.938,-11.937 3.588,-3.586 4.155,-0.684 7.575,2.736 3.733,3.731 7.467,7.463 11.198,11.196 4.87,4.871 8.912,1.183 12.622,-2.526 2.864,-2.861 7.924,-6.298 9.531,-10.177 2.192,-5.292 -4.755,-10.05 -7.932,-13.228 -3.437,-3.433 -6.868,-6.864 -10.303,-10.299 -0.411,-0.411 8.378,-8.773 9.227,-9.622 3.609,-3.609 13.422,-10.526 7.69,-16.267 C 103.16,38.128 98.331,34.638 94.842,31.151 87.236,23.548 73.593,42.932 68.714,47.822 65.214,44.323 61.715,40.826 58.215,37.327 55.521,34.632 51.582,28.986 47.314,28.939 m -3.375,75.243 C 39.305,99.549 26.84,91.528 33.586,84.78 35.78,82.585 51.21,68.653 49.794,67.24 46.325,63.769 42.854,60.3 39.385,56.829 37.013,54.456 31.042,50.344 31.042,46.502 c 0,-3.947 6.2,-8.181 8.653,-10.633 2.969,-2.967 6.924,-8.312 11.298,-3.94 1.706,1.706 17.645,17.799 17.802,17.642 5.612,-5.612 11.313,-13.639 17.944,-17.944 4.365,-4.359 9.224,2.469 12,5.243 2.848,2.85 10.823,8.436 6.254,13.011 -4.306,6.634 -12.334,12.334 -17.947,17.948 -0.024,0.025 -0.051,0.051 -0.077,0.077 5.64,5.64 13.694,11.361 18.024,18.023 4.577,4.568 -3.408,10.163 -6.254,13.011 -3.092,3.092 -7.644,9.6 -12.303,4.938 -2.348,-2.348 -16.979,-18.46 -18.385,-17.054 -3.655,3.655 -18.307,23.185 -24.112,17.358"
       id="path20"
       style="fill:#970f00" />
  </g>
</svg>
