<?xml version="1.0" encoding="UTF-8" standalone="no"?>
<!-- Created with Inkscape (http://www.inkscape.org/) -->

<svg
   xmlns:dc="http://purl.org/dc/elements/1.1/"
   xmlns:cc="http://creativecommons.org/ns#"
   xmlns:rdf="http://www.w3.org/1999/02/22-rdf-syntax-ns#"
   xmlns:svg="http://www.w3.org/2000/svg"
   xmlns="http://www.w3.org/2000/svg"
   xmlns:xlink="http://www.w3.org/1999/xlink"
   version="1.1"
   width="680"
   height="855"
   id="svg5495">
  <defs
     id="defs5497" />
  <metadata
     id="metadata5500">
    <rdf:RDF>
      <cc:Work
         rdf:about="">
        <dc:format>image/svg+xml</dc:format>
        <dc:type
           rdf:resource="http://purl.org/dc/dcmitype/StillImage" />
        <dc:title></dc:title>
      </cc:Work>
    </rdf:RDF>
  </metadata>
  <g
     transform="translate(0,-197.362)"
     id="layer1">
    <path
       d="m 49.223398,203.13424 0,41.55491 0,744.82535 0,41.5547 41.555219,0 465.825683,0 77.20997,0 c 23.01467,0 41.46956,-18.54 41.46956,-41.5547 l 0,-744.82535 c 0,-23.01474 -18.45489,-41.55491 -41.46956,-41.55491 l -77.20997,0 -465.825683,0 -41.555219,0 z"
       id="path8098"
       style="fill:#ffffff;stroke:#030000;stroke-width:3;stroke-miterlimit:4;stroke-opacity:1;stroke-dasharray:none" />
    <path
       d="m 46.990101,207.58451 0,41.55491 0,744.82539 0,41.55469 41.55522,0 465.825679,0 77.20997,0 c 23.01467,0 41.46956,-18.54 41.46956,-41.55469 l 0,-744.82539 c 0,-23.01474 -18.45489,-41.55491 -41.46956,-41.55491 l -77.20997,0 -465.825679,0 -41.55522,0 z"
       id="path6790"
       style="fill:none;stroke:#030000;stroke-width:1;stroke-miterlimit:4;stroke-opacity:1;stroke-dasharray:none" />
    <path
       d="m 44.693901,209.59364 0,41.55491 0,744.82546 0,41.55469 41.55522,0 465.825679,0 77.20997,0 c 23.01467,0 41.46956,-18.54 41.46956,-41.55469 l 0,-744.82546 c 0,-23.01474 -18.45489,-41.55491 -41.46956,-41.55491 l -77.20997,0 -465.825679,0 -41.55522,0 z"
       id="path6792"
       style="fill:none;stroke:#030000;stroke-width:1;stroke-miterlimit:4;stroke-opacity:1;stroke-dasharray:none" />
    <path
       d="m 42.397691,211.60287 0,41.55491 0,744.82533 0,41.55469 41.55522,0 465.825679,0 77.20997,0 c 23.01467,0 41.46956,-18.54 41.46956,-41.55469 l 0,-744.82533 c 0,-23.01474 -18.45489,-41.55491 -41.46956,-41.55491 l -77.20997,0 -465.825679,0 -41.55522,0 z"
       id="path6794"
       style="fill:none;stroke:#030000;stroke-width:1;stroke-miterlimit:4;stroke-opacity:1;stroke-dasharray:none" />
    <path
       d="m 40.101491,213.61201 0,41.55491 0,744.82539 0,41.55469 41.55522,0 465.825679,0 77.20997,0 c 23.01467,0 41.46956,-18.54 41.46956,-41.55469 l 0,-744.82539 c 0,-23.01474 -18.45489,-41.55491 -41.46956,-41.55491 l -77.20997,0 -465.825679,0 -41.55522,0 z"
       id="path6796"
       style="fill:none;stroke:#030000;stroke-width:1;stroke-miterlimit:4;stroke-opacity:1;stroke-dasharray:none" />
    <path
       d="m 34.386758,217.97094 0,41.55494 0,744.82552 0,41.5547 41.555199,0 465.825703,0 77.20996,0 c 23.01466,0 41.46957,-18.54 41.46957,-41.5547 l 0,-744.82552 c 0,-23.01475 -18.45491,-41.55494 -41.46957,-41.55494 l -77.20996,0 -465.825703,0 -41.555199,0 z"
       id="rect8093"
       style="fill:#008000;stroke:#030000;stroke-width:3;stroke-linejoin:round;stroke-miterlimit:4;stroke-opacity:1;stroke-dasharray:none" />
    <g
       id="g6838">
      <path
         d="m 32.230399,255.94187 c -16.179112,0 -29.287066,7.10413 -29.287066,15.86483 0,8.76069 13.107954,15.86482 29.287066,15.86482 14.178255,0 26.013811,-5.45316 28.72307,-12.69835 l -6.025242,0 c -2.601997,5.4757 -11.776911,9.53188 -22.697828,9.53188 -12.943289,0 -23.426894,-5.68979 -23.426894,-12.69835 0,-7.00857 10.483605,-12.68211 23.426894,-12.68211 0.09293,0 0.182414,-5.2e-4 0.275129,0 l 0,-3.18272 c -0.0925,-4.6e-4 -0.182356,0 -0.275129,0 z"
         id="path5919"
         style="fill:#000000;fill-opacity:1;stroke:#000000;stroke-width:5.48354006;stroke-linecap:round;stroke-miterlimit:4;stroke-opacity:1;stroke-dasharray:none" />
      <use
         transform="translate(0,25.1375)"
         id="use6435"
         x="0"
         y="0"
         width="744.09448"
         height="1052.3622"
         xlink:href="#path5919" />
      <use
         transform="translate(0,50.275)"
         id="use6437"
         x="0"
         y="0"
         width="744.09448"
         height="1052.3622"
         xlink:href="#path5919" />
      <use
         transform="translate(0,75.4126)"
         id="use6439"
         x="0"
         y="0"
         width="744.09448"
         height="1052.3622"
         xlink:href="#path5919" />
      <use
         transform="translate(0,100.55)"
         id="use6441"
         x="0"
         y="0"
         width="744.09448"
         height="1052.3622"
         xlink:href="#path5919" />
      <use
         transform="translate(0,125.688)"
         id="use6443"
         x="0"
         y="0"
         width="744.09448"
         height="1052.3622"
         xlink:href="#path5919" />
      <use
         transform="translate(0,150.825)"
         id="use6445"
         x="0"
         y="0"
         width="744.09448"
         height="1052.3622"
         xlink:href="#path5919" />
      <use
         transform="translate(0,175.963)"
         id="use6447"
         x="0"
         y="0"
         width="744.09448"
         height="1052.3622"
         xlink:href="#path5919" />
      <use
         transform="translate(0,201.1)"
         id="use6449"
         x="0"
         y="0"
         width="744.09448"
         height="1052.3622"
         xlink:href="#path5919" />
      <use
         transform="translate(0,226.238)"
         id="use6451"
         x="0"
         y="0"
         width="744.09448"
         height="1052.3622"
         xlink:href="#path5919" />
      <use
         transform="translate(0,251.375)"
         id="use6453"
         x="0"
         y="0"
         width="744.09448"
         height="1052.3622"
         xlink:href="#path5919" />
      <use
         transform="translate(0,276.513)"
         id="use6455"
         x="0"
         y="0"
         width="744.09448"
         height="1052.3622"
         xlink:href="#path5919" />
      <use
         transform="translate(0,301.65)"
         id="use6457"
         x="0"
         y="0"
         width="744.09448"
         height="1052.3622"
         xlink:href="#path5919" />
      <use
         transform="translate(0,326.788)"
         id="use6459"
         x="0"
         y="0"
         width="744.09448"
         height="1052.3622"
         xlink:href="#path5919" />
      <use
         transform="translate(0,351.926)"
         id="use6461"
         x="0"
         y="0"
         width="744.09448"
         height="1052.3622"
         xlink:href="#path5919" />
      <use
         transform="translate(0,377.063)"
         id="use6463"
         x="0"
         y="0"
         width="744.09448"
         height="1052.3622"
         xlink:href="#path5919" />
      <use
         transform="translate(0,402.201)"
         id="use6465"
         x="0"
         y="0"
         width="744.09448"
         height="1052.3622"
         xlink:href="#path5919" />
      <use
         transform="translate(0,427.338)"
         id="use6467"
         x="0"
         y="0"
         width="744.09448"
         height="1052.3622"
         xlink:href="#path5919" />
      <use
         transform="translate(0,452.476)"
         id="use6469"
         x="0"
         y="0"
         width="744.09448"
         height="1052.3622"
         xlink:href="#path5919" />
      <use
         transform="translate(0,477.613)"
         id="use6471"
         x="0"
         y="0"
         width="744.09448"
         height="1052.3622"
         xlink:href="#path5919" />
      <use
         transform="translate(0,502.751)"
         id="use6473"
         x="0"
         y="0"
         width="744.09448"
         height="1052.3622"
         xlink:href="#path5919" />
      <use
         transform="translate(0,527.888)"
         id="use6475"
         x="0"
         y="0"
         width="744.09448"
         height="1052.3622"
         xlink:href="#path5919" />
      <use
         transform="translate(0,553.026)"
         id="use6477"
         x="0"
         y="0"
         width="744.09448"
         height="1052.3622"
         xlink:href="#path5919" />
      <use
         transform="translate(0,578.163)"
         id="use6479"
         x="0"
         y="0"
         width="744.09448"
         height="1052.3622"
         xlink:href="#path5919" />
      <use
         transform="translate(0,628.439)"
         id="use6481"
         x="0"
         y="0"
         width="744.09448"
         height="1052.3622"
         xlink:href="#path5919" />
      <use
         transform="translate(0,653.576)"
         id="use6483"
         x="0"
         y="0"
         width="744.09448"
         height="1052.3622"
         xlink:href="#path5919" />
      <use
         transform="translate(0,603.301)"
         id="use6485"
         x="0"
         y="0"
         width="744.09448"
         height="1052.3622"
         xlink:href="#path5919" />
      <use
         transform="translate(0,678.714)"
         id="use6487"
         x="0"
         y="0"
         width="744.09448"
         height="1052.3622"
         xlink:href="#path5919" />
      <use
         transform="translate(0,703.851)"
         id="use6489"
         x="0"
         y="0"
         width="744.09448"
         height="1052.3622"
         xlink:href="#path5919" />
      <use
         transform="translate(0,728.989)"
         id="use6491"
         x="0"
         y="0"
         width="744.09448"
         height="1052.3622"
         xlink:href="#path5919" />
      <use
         transform="translate(0,754.126)"
         id="use6493"
         x="0"
         y="0"
         width="744.09448"
         height="1052.3622"
         xlink:href="#path5919" />
      <path
         d="m 32.230399,230.80433 c -16.179112,0 -29.287066,7.10412 -29.287066,15.86483 0,8.76069 13.107954,15.86482 29.287066,15.86482 14.178255,0 26.013811,-5.45317 28.72307,-12.69835 l -6.025242,0 c -2.601997,5.4757 -11.776911,9.53188 -22.697828,9.53188 -12.943289,0 -23.426894,-5.6898 -23.426894,-12.69835 0,-7.00857 10.483605,-12.68211 23.426894,-12.68211 0.09293,0 0.182414,-5.2e-4 0.275129,0 l 0,-3.18272 c -0.0925,-4.7e-4 -0.182356,0 -0.275129,0 z"
         id="path6559"
         style="fill:#000000;fill-opacity:1;stroke:#000000;stroke-width:5.48354006;stroke-linecap:round;stroke-miterlimit:4;stroke-opacity:1;stroke-dasharray:none" />
      <path
         d="m 40.25833,212.80266 c 2.695448,-1.41907 -5.822394,-8.80623 -15.825005,-7.36434 -10.002611,1.44191 -21.489992,11.71289 -21.489992,16.09324 0,8.76069 13.107954,15.86482 29.287066,15.86482 14.178255,0 26.013811,-5.45317 28.72307,-12.69835 l -6.025242,0 c -2.601997,5.4757 -11.776911,9.53188 -22.697828,9.53188 -12.943289,0 -23.426894,-5.68979 -23.426894,-12.69835 0,-3.50429 10.952923,-12.27004 17.198718,-12.78052 6.245795,-0.51047 7.784462,7.23434 14.256107,7.23434 0.04647,0 0.09207,-1.3e-4 0.137666,-1.9e-4 0.0456,-7e-5 0.0912,-7e-5 0.137521,1.9e-4 l 0,-1.59135 0,-1.59137 c 0.07547,0.32413 -0.01443,0.33494 -0.111835,0.25931 -0.09784,-0.0756 -0.204378,-0.23769 -0.163323,-0.25931 z"
         id="path6561"
         style="fill:#000000;fill-opacity:1;stroke:#000000;stroke-width:5.48354006;stroke-linecap:round;stroke-miterlimit:4;stroke-opacity:1;stroke-dasharray:none" />
    </g>
    <rect
       width="275.9632"
       height="157.26936"
       ry="41.542854"
       x="212.4131"
       y="431.65515"
       id="rect8100"
       style="fill:#ffffff;fill-opacity:1;stroke:#030000;stroke-width:9.02921963;stroke-linejoin:round;stroke-miterlimit:4;stroke-opacity:1;stroke-dasharray:none" />
  </g>
</svg>
