<?xml version="1.0" encoding="UTF-8" standalone="no"?>
<!-- Created with Inkscape (http://www.inkscape.org/) -->

<svg
   xmlns:dc="http://purl.org/dc/elements/1.1/"
   xmlns:cc="http://creativecommons.org/ns#"
   xmlns:rdf="http://www.w3.org/1999/02/22-rdf-syntax-ns#"
   xmlns:svg="http://www.w3.org/2000/svg"
   xmlns="http://www.w3.org/2000/svg"
   xmlns:xlink="http://www.w3.org/1999/xlink"
   version="1.0"
   width="497.75"
   height="465.75"
   id="svg4248">
  <defs
     id="defs4250">
    <linearGradient
       id="linearGradient4191">
      <stop
         id="stop4193"
         style="stop-color:#000000;stop-opacity:1"
         offset="0" />
      <stop
         id="stop4195"
         style="stop-color:#000000;stop-opacity:0"
         offset="1" />
    </linearGradient>
    <linearGradient
       x1="350.71558"
       y1="336.3714"
       x2="358.85184"
       y2="327.80692"
       id="linearGradient4226"
       xlink:href="#linearGradient4191"
       gradientUnits="userSpaceOnUse" />
    <linearGradient
       x1="110.05048"
       y1="138.23856"
       x2="103.6906"
       y2="145.33636"
       id="linearGradient4224"
       xlink:href="#linearGradient1045"
       gradientUnits="userSpaceOnUse"
       gradientTransform="matrix(1.01816,-0.0317945,0.0306403,0.981203,248.5,191.289)" />
    <linearGradient
       x1="42.497837"
       y1="103.57257"
       x2="54.32185"
       y2="167.94406"
       id="linearGradient4222"
       xlink:href="#linearGradient1045"
       gradientUnits="userSpaceOnUse"
       gradientTransform="matrix(1.18793,-0.0352644,0.0251894,0.766823,265.958,191.036)" />
    <linearGradient
       id="linearGradient1045">
      <stop
         id="stop1046"
         style="stop-color:#ffffff;stop-opacity:0.74901998"
         offset="0" />
      <stop
         id="stop1047"
         style="stop-color:#ffffff;stop-opacity:0"
         offset="1" />
    </linearGradient>
    <linearGradient
       x1="57.667629"
       y1="84.017433"
       x2="60.490723"
       y2="111.23763"
       id="linearGradient4220"
       xlink:href="#linearGradient1045"
       gradientUnits="userSpaceOnUse"
       gradientTransform="matrix(1.14816,-0.0340839,0.030664,0.933483,252.432,191.061)" />
    <linearGradient
       id="linearGradient1439">
      <stop
         id="stop1440"
         style="stop-color:#ffffff;stop-opacity:0.57046998"
         offset="0" />
      <stop
         id="stop1441"
         style="stop-color:#96b0c6;stop-opacity:0.89932901"
         offset="1" />
    </linearGradient>
    <radialGradient
       cx="61.56411"
       cy="105.93911"
       r="27.959114"
       fx="69.98687"
       fy="90.41909"
       id="radialGradient4218"
       xlink:href="#linearGradient1439"
       gradientUnits="userSpaceOnUse"
       gradientTransform="matrix(1.17672,-0.0657059,0.0622919,1.00815,242.272,193.298)" />
    <filter
       color-interpolation-filters="sRGB"
       id="filter4141">
      <feGaussianBlur
         id="feGaussianBlur4143"
         stdDeviation="1.0889941" />
    </filter>
    <linearGradient
       id="linearGradient4145">
      <stop
         id="stop4147"
         style="stop-color:#000000;stop-opacity:1"
         offset="0" />
      <stop
         id="stop4149"
         style="stop-color:#000000;stop-opacity:0"
         offset="1" />
    </linearGradient>
    <linearGradient
       x1="427.79593"
       y1="418.59042"
       x2="308.88391"
       y2="339.36896"
       id="linearGradient4216"
       xlink:href="#linearGradient4145"
       gradientUnits="userSpaceOnUse"
       gradientTransform="translate(-15.8443,-42.8224)" />
  </defs>
  <metadata
     id="metadata4253">
    <rdf:RDF>
      <cc:Work
         rdf:about="">
        <dc:format>image/svg+xml</dc:format>
        <dc:type
           rdf:resource="http://purl.org/dc/dcmitype/StillImage" />
        <dc:title></dc:title>
        <dc:date />
        <dc:creator>
          <cc:Agent>
            <dc:title />
          </cc:Agent>
        </dc:creator>
        <dc:rights>
          <cc:Agent>
            <dc:title />
          </cc:Agent>
        </dc:rights>
        <dc:publisher>
          <cc:Agent>
            <dc:title />
          </cc:Agent>
        </dc:publisher>
        <dc:identifier />
        <dc:source />
        <dc:relation />
        <dc:language />
        <dc:subject>
          <rdf:Bag />
        </dc:subject>
        <dc:coverage />
        <dc:description />
        <dc:contributor>
          <cc:Agent>
            <dc:title />
          </cc:Agent>
        </dc:contributor>
        <cc:license
           rdf:resource="" />
      </cc:Work>
    </rdf:RDF>
  </metadata>
  <g
     transform="translate(-25.3388,-78.216)"
     id="layer1">
    <g
       transform="matrix(5.84736,0,0,5.84736,-1672.4571,-1496.2329)"
       id="g4206">
      <path
         d="m 316.07229,281.98202 c -0.43848,0.0486 -0.86293,0.0963 -1.30329,0.16735 -14.09135,2.2736 -23.67275,15.31462 -21.39425,29.11832 2.2785,13.8037 15.55266,23.18673 29.64399,20.91314 5.32396,-0.85901 9.9974,-3.24509 13.63696,-6.64407 l 29.69403,21.53613 c 3.12107,-0.43375 5.32521,-2.54648 6.63691,-6.36414 l -31.28016,-21.37742 -0.60163,0.70667 c 2.99888,-4.94941 4.31388,-10.8985 3.30565,-17.00664 -2.20729,-13.37234 -14.74564,-22.55444 -28.33821,-21.04934 z m 0.11619,1.0566 c 13.01836,-1.44152 25.05638,7.3638 27.17043,20.17124 2.18223,13.22057 -8.30725,25.74182 -21.80333,27.91939 -13.49606,2.17754 -24.91335,-6.79082 -27.0956,-20.0114 -2.18223,-13.22055 6.99145,-25.73934 20.48752,-27.91689 0.42175,-0.0681 0.82103,-0.11586 1.24098,-0.16234 z"
         id="path4039"
         style="fill:url(#linearGradient4216);fill-opacity:1;fill-rule:evenodd;stroke-width:0.5;filter:url(#filter4141)" />
      <path
         d="m 344.17328,310.53057 29.61718,27.04843 c -1.89242,3.87599 -4.50058,5.8091 -7.81004,5.83855 l -28.02027,-27.09828 6.21313,-5.7887 z"
         id="path852"
         style="fill:#807d74;fill-opacity:1;fill-rule:evenodd;stroke-width:0.5" />
      <path
         d="m 344.98664,308.53682 c -25.57774,26.69357 -58.35719,-3.9253 -41.04008,-28.54056 -22.47432,26.70691 17.05217,59.23993 41.04008,28.54056 z"
         id="path4204"
         style="fill:#273f57;fill-opacity:0.99607801;fill-rule:nonzero;stroke:none" />
      <path
         d="m 349.29738,294.36408 c 0.43574,13.26512 -10.53563,24.36721 -24.48967,24.78145 -13.95405,0.41424 -25.63272,-10.01548 -26.06847,-23.2806 -0.43574,-13.26512 10.53563,-24.3672 24.48968,-24.78143 13.95404,-0.41424 25.6327,10.01546 26.06846,23.28058 z"
         id="path853"
         style="fill:url(#radialGradient4218);fill-opacity:1;fill-rule:evenodd;stroke:#314e6c;stroke-width:1.13487005;stroke-miterlimit:4;stroke-opacity:0.995238;stroke-dasharray:none" />
      <path
         d="m 334.58464,277.67286 c 3.57111,4.2824 -0.18987,12.77638 -8.39505,18.9598 -8.2052,6.18342 -17.76278,7.72625 -21.33391,3.44384 -3.57111,-4.28239 0.18987,-12.77639 8.39506,-18.95979 8.20519,-6.18343 17.76278,-7.72627 21.3339,-3.44385 z"
         id="path863"
         style="fill:url(#linearGradient4220);fill-opacity:0.09090899;fill-rule:evenodd;stroke-width:1pt" />
      <path
         d="m 310.11078,312.32383 c 14.49429,4.30904 31.85616,-4.46732 36.42449,-18.21714 4.41474,12.57528 -23.28046,39.53212 -36.42449,18.21714 z"
         id="path885"
         style="fill:url(#linearGradient4222);fill-opacity:0.55208303;fill-rule:evenodd;stroke-width:1pt" />
      <path
         d="m 339.59269,316.18967 4.6224,-4.38252 27.97152,25.69252 c 1.23309,3.32848 -0.44562,5.68159 -6.10065,4.88028 l -26.49327,-26.19028 z"
         id="path1766"
         style="fill:url(#linearGradient4224);fill-opacity:0.75;fill-rule:evenodd;stroke:none" />
      <path
         d="m 338.93805,316.8243 4.6224,-4.38252 27.97152,25.69252 c 1.23309,3.32848 -0.44562,5.68159 -6.10065,4.88028 L 338.93805,316.8243 z"
         id="path4187"
         style="fill:url(#linearGradient4226);fill-opacity:1;fill-rule:evenodd;stroke:none" />
    </g>
  </g>
</svg>
