<?xml version="1.0" encoding="UTF-8" standalone="no"?>
<!-- Created with Inkscape (http://www.inkscape.org/) -->

<svg
   xmlns:dc="http://purl.org/dc/elements/1.1/"
   xmlns:cc="http://creativecommons.org/ns#"
   xmlns:rdf="http://www.w3.org/1999/02/22-rdf-syntax-ns#"
   xmlns:svg="http://www.w3.org/2000/svg"
   xmlns="http://www.w3.org/2000/svg"
   xmlns:xlink="http://www.w3.org/1999/xlink"
   version="1.1"
   width="36"
   height="36"
   id="svg2">
  <defs
     id="defs4">
    <linearGradient
       id="linearGradient1378">
      <stop
         id="stop1380"
         style="stop-color:#b0ffa5;stop-opacity:1"
         offset="0" />
      <stop
         id="stop1382"
         style="stop-color:#26bc14;stop-opacity:0.44705901"
         offset="1" />
    </linearGradient>
    <linearGradient
       id="linearGradient1365">
      <stop
         id="stop1367"
         style="stop-color:#24f00a;stop-opacity:1"
         offset="0" />
      <stop
         id="stop1370"
         style="stop-color:#0b6400;stop-opacity:1"
         offset="1" />
    </linearGradient>
    <linearGradient
       id="linearGradient1352">
      <stop
         id="stop1354"
         style="stop-color:#179807;stop-opacity:1"
         offset="0" />
      <stop
         id="stop1356"
         style="stop-color:#0b5102;stop-opacity:1"
         offset="1" />
    </linearGradient>
    <linearGradient
       id="linearGradient1367">
      <stop
         id="stop1369"
         style="stop-color:#f67e36;stop-opacity:1"
         offset="0" />
      <stop
         id="stop1371"
         style="stop-color:#602604;stop-opacity:1"
         offset="1" />
    </linearGradient>
    <linearGradient
       id="linearGradient1347">
      <stop
         id="stop1349"
         style="stop-color:#f0da27;stop-opacity:1"
         offset="0" />
      <stop
         id="stop1351"
         style="stop-color:#bf4d09;stop-opacity:1"
         offset="1" />
    </linearGradient>
    <linearGradient
       id="linearGradient1315">
      <stop
         id="stop1317"
         style="stop-color:#97ff82;stop-opacity:1"
         offset="0" />
      <stop
         id="stop1319"
         style="stop-color:#ceff24;stop-opacity:0"
         offset="1" />
    </linearGradient>
    <linearGradient
       id="linearGradient2122">
      <stop
         id="stop2124"
         style="stop-color:#2edc32;stop-opacity:1"
         offset="0" />
      <stop
         id="stop2126"
         style="stop-color:#11661d;stop-opacity:1"
         offset="1" />
    </linearGradient>
    <linearGradient
       id="linearGradient1364">
      <stop
         id="stop1366"
         style="stop-color:#236b0d;stop-opacity:1"
         offset="0" />
      <stop
         id="stop1368"
         style="stop-color:#081b04;stop-opacity:1"
         offset="1" />
    </linearGradient>
    <linearGradient
       x1="74.910713"
       y1="32.362179"
       x2="84.910713"
       y2="47.451466"
       id="linearGradient1341"
       xlink:href="#linearGradient1364"
       gradientUnits="userSpaceOnUse" />
    <linearGradient
       x1="73.839287"
       y1="34.428566"
       x2="76.875"
       y2="43.714283"
       id="linearGradient1343"
       xlink:href="#linearGradient2122"
       gradientUnits="userSpaceOnUse" />
    <linearGradient
       x1="72.946426"
       y1="35.589287"
       x2="85"
       y2="47.375"
       id="linearGradient1345"
       xlink:href="#linearGradient1315"
       gradientUnits="userSpaceOnUse" />
    <radialGradient
       cx="21.959658"
       cy="14.921703"
       r="27.5"
       fx="21.959658"
       fy="14.921703"
       id="radialGradient1353"
       xlink:href="#linearGradient1347"
       gradientUnits="userSpaceOnUse"
       gradientTransform="matrix(0,1.33064,-1.34741,2.02737e-5,44.0968,-13.3951)" />
    <radialGradient
       cx="21.959658"
       cy="14.921703"
       r="27.5"
       fx="21.959658"
       fy="14.921703"
       id="radialGradient1357"
       xlink:href="#linearGradient1367"
       gradientUnits="userSpaceOnUse"
       gradientTransform="matrix(0,1.33064,-1.34741,2.02737e-5,44.0968,-13.3951)" />
    <radialGradient
       cx="21.959658"
       cy="14.921703"
       r="27.5"
       fx="21.959658"
       fy="14.921703"
       id="radialGradient1375"
       xlink:href="#linearGradient1367"
       gradientUnits="userSpaceOnUse"
       gradientTransform="matrix(0,1.33064,-1.34741,2.02737e-5,44.0968,-13.3951)" />
    <radialGradient
       cx="21.959658"
       cy="14.921703"
       r="27.5"
       fx="21.959658"
       fy="14.921703"
       id="radialGradient1381"
       xlink:href="#linearGradient1367"
       gradientUnits="userSpaceOnUse"
       gradientTransform="matrix(0,1.33064,-1.34741,2.02737e-5,44.0968,-13.3951)" />
    <radialGradient
       cx="21.959658"
       cy="14.921703"
       r="27.5"
       fx="21.959658"
       fy="14.921703"
       id="radialGradient1383"
       xlink:href="#linearGradient1347"
       gradientUnits="userSpaceOnUse"
       gradientTransform="matrix(0,1.33064,-1.34741,2.02737e-5,44.0968,-13.3951)" />
    <linearGradient
       x1="20.152672"
       y1="13.745695"
       x2="40.305344"
       y2="48.9771"
       id="linearGradient1358"
       xlink:href="#linearGradient1352"
       gradientUnits="userSpaceOnUse" />
    <linearGradient
       x1="20.152672"
       y1="13.745695"
       x2="40.305344"
       y2="48.9771"
       id="linearGradient1362"
       xlink:href="#linearGradient1365"
       gradientUnits="userSpaceOnUse" />
    <linearGradient
       x1="20.152672"
       y1="13.745695"
       x2="40.305344"
       y2="48.9771"
       id="linearGradient1374"
       xlink:href="#linearGradient1365"
       gradientUnits="userSpaceOnUse" />
    <linearGradient
       x1="21.251909"
       y1="17.587786"
       x2="42.748093"
       y2="46.167938"
       id="linearGradient1384"
       xlink:href="#linearGradient1378"
       gradientUnits="userSpaceOnUse" />
    <linearGradient
       x1="20.152672"
       y1="13.745695"
       x2="40.305344"
       y2="48.9771"
       id="linearGradient1391"
       xlink:href="#linearGradient1352"
       gradientUnits="userSpaceOnUse" />
    <linearGradient
       x1="20.152672"
       y1="13.745695"
       x2="40.305344"
       y2="48.9771"
       id="linearGradient1393"
       xlink:href="#linearGradient1365"
       gradientUnits="userSpaceOnUse" />
    <linearGradient
       x1="21.251909"
       y1="17.587786"
       x2="42.748093"
       y2="46.167938"
       id="linearGradient1395"
       xlink:href="#linearGradient1378"
       gradientUnits="userSpaceOnUse" />
    <linearGradient
       x1="20.152672"
       y1="13.745695"
       x2="40.305344"
       y2="48.9771"
       id="linearGradient1400"
       xlink:href="#linearGradient1352"
       gradientUnits="userSpaceOnUse" />
    <linearGradient
       x1="20.030535"
       y1="13.923663"
       x2="42.748093"
       y2="46.167938"
       id="linearGradient1402"
       xlink:href="#linearGradient1378"
       gradientUnits="userSpaceOnUse" />
    <linearGradient
       x1="20.152672"
       y1="13.745695"
       x2="40.305344"
       y2="48.9771"
       id="linearGradient1409"
       xlink:href="#linearGradient1352"
       gradientUnits="userSpaceOnUse" />
    <linearGradient
       x1="20.152672"
       y1="13.745695"
       x2="40.305344"
       y2="48.9771"
       id="linearGradient1411"
       xlink:href="#linearGradient1365"
       gradientUnits="userSpaceOnUse" />
    <linearGradient
       x1="20.030535"
       y1="13.923663"
       x2="42.748093"
       y2="46.167938"
       id="linearGradient1413"
       xlink:href="#linearGradient1378"
       gradientUnits="userSpaceOnUse" />
    <linearGradient
       x1="20.152672"
       y1="13.745695"
       x2="40.305344"
       y2="48.9771"
       id="linearGradient1418"
       xlink:href="#linearGradient1352"
       gradientUnits="userSpaceOnUse" />
    <linearGradient
       x1="20.152672"
       y1="18.931297"
       x2="43.480919"
       y2="43.60305"
       id="linearGradient1422"
       xlink:href="#linearGradient1378"
       gradientUnits="userSpaceOnUse" />
    <linearGradient
       x1="20.152672"
       y1="13.745695"
       x2="40.305344"
       y2="48.9771"
       id="linearGradient1429"
       xlink:href="#linearGradient1352"
       gradientUnits="userSpaceOnUse" />
    <linearGradient
       x1="20.152672"
       y1="13.745695"
       x2="40.305344"
       y2="48.9771"
       id="linearGradient1431"
       xlink:href="#linearGradient1365"
       gradientUnits="userSpaceOnUse" />
    <linearGradient
       x1="20.152672"
       y1="18.931297"
       x2="43.480919"
       y2="43.60305"
       id="linearGradient1433"
       xlink:href="#linearGradient1378"
       gradientUnits="userSpaceOnUse" />
    <linearGradient
       x1="18.504625"
       y1="17.420588"
       x2="47.84375"
       y2="46.761806"
       id="linearGradient1436"
       xlink:href="#linearGradient1378"
       gradientUnits="userSpaceOnUse"
       gradientTransform="matrix(0.889325,0,0,0.889325,3.5416,3.5416)" />
    <linearGradient
       x1="20.152672"
       y1="13.745695"
       x2="40.305344"
       y2="48.9771"
       id="linearGradient1439"
       xlink:href="#linearGradient1365"
       gradientUnits="userSpaceOnUse"
       gradientTransform="matrix(0.889325,0,0,0.889325,3.5416,3.5416)" />
    <linearGradient
       x1="20.152672"
       y1="13.745695"
       x2="40.305344"
       y2="48.9771"
       id="linearGradient1442"
       xlink:href="#linearGradient1352"
       gradientUnits="userSpaceOnUse"
       gradientTransform="matrix(0.889325,0,0,0.889325,3.5416,3.5416)" />
    <linearGradient
       x1="20.152672"
       y1="13.745695"
       x2="40.305344"
       y2="48.9771"
       id="linearGradient1449"
       xlink:href="#linearGradient1352"
       gradientUnits="userSpaceOnUse"
       gradientTransform="matrix(0.889325,0,0,0.889325,3.5416,3.5416)" />
    <linearGradient
       x1="20.152672"
       y1="13.745695"
       x2="40.305344"
       y2="48.9771"
       id="linearGradient1451"
       xlink:href="#linearGradient1365"
       gradientUnits="userSpaceOnUse"
       gradientTransform="matrix(0.889325,0,0,0.889325,3.5416,3.5416)" />
    <linearGradient
       x1="18.504625"
       y1="17.420588"
       x2="47.84375"
       y2="46.761806"
       id="linearGradient1453"
       xlink:href="#linearGradient1378"
       gradientUnits="userSpaceOnUse"
       gradientTransform="matrix(0.889325,0,0,0.889325,3.5416,3.5416)" />
    <linearGradient
       x1="18.504625"
       y1="17.420588"
       x2="47.84375"
       y2="46.761806"
       id="linearGradient1456"
       xlink:href="#linearGradient1378"
       gradientUnits="userSpaceOnUse"
       gradientTransform="matrix(0.889325,0,0,0.889325,3.54159,3.5416)" />
    <linearGradient
       x1="20.152672"
       y1="13.745695"
       x2="40.305344"
       y2="48.9771"
       id="linearGradient1459"
       xlink:href="#linearGradient1365"
       gradientUnits="userSpaceOnUse"
       gradientTransform="matrix(0.889325,0,0,0.889325,-50.2473,-11.6325)" />
    <linearGradient
       x1="20.152672"
       y1="13.745695"
       x2="40.305344"
       y2="48.9771"
       id="linearGradient1462"
       xlink:href="#linearGradient1352"
       gradientUnits="userSpaceOnUse"
       gradientTransform="matrix(0.889325,0,0,0.889325,3.5416,3.5416)" />
    <linearGradient
       x1="18.504625"
       y1="17.420588"
       x2="47.84375"
       y2="46.761806"
       id="linearGradient1466"
       xlink:href="#linearGradient1378"
       gradientUnits="userSpaceOnUse"
       gradientTransform="matrix(0.889325,0,0,0.889325,-32.5486,2.45136)" />
    <linearGradient
       x1="18.504625"
       y1="17.420588"
       x2="47.84375"
       y2="46.761806"
       id="linearGradient1470"
       xlink:href="#linearGradient1365"
       gradientUnits="userSpaceOnUse"
       gradientTransform="matrix(0.889325,0,0,0.889325,-32.5486,2.45136)" />
    <linearGradient
       x1="18.504625"
       y1="17.420588"
       x2="47.84375"
       y2="46.761806"
       id="linearGradient1474"
       xlink:href="#linearGradient1378"
       gradientUnits="userSpaceOnUse"
       gradientTransform="matrix(0.889325,0,0,0.889325,3.54159,3.5416)" />
    <linearGradient
       x1="32.682953"
       y1="19.206007"
       x2="27.46896"
       y2="49.282398"
       id="linearGradient1385"
       xlink:href="#linearGradient1378"
       gradientUnits="userSpaceOnUse"
       gradientTransform="matrix(0.58147,-0.58147,0.58147,0.58147,-5.21409,32)" />
    <linearGradient
       x1="36.463844"
       y1="6.1829467"
       x2="27.573986"
       y2="57.789398"
       id="linearGradient1388"
       xlink:href="#linearGradient1365"
       gradientUnits="userSpaceOnUse"
       gradientTransform="matrix(0.58147,-0.58147,0.58147,0.58147,-5.20916,32)" />
    <linearGradient
       x1="36.304314"
       y1="6.206079"
       x2="27.493591"
       y2="57.587868"
       id="linearGradient1392"
       xlink:href="#linearGradient1352"
       gradientUnits="userSpaceOnUse"
       gradientTransform="matrix(0.58147,-0.58147,0.58147,0.58147,-5.21461,32.0011)" />
    <linearGradient
       x1="36.304314"
       y1="6.206079"
       x2="27.493591"
       y2="57.587868"
       id="linearGradient1375"
       xlink:href="#linearGradient1352"
       gradientUnits="userSpaceOnUse"
       gradientTransform="matrix(0.58147,-0.58147,0.58147,0.58147,-5.21461,32.0011)" />
    <linearGradient
       x1="36.463844"
       y1="6.1829467"
       x2="27.573986"
       y2="57.789398"
       id="linearGradient1377"
       xlink:href="#linearGradient1365"
       gradientUnits="userSpaceOnUse"
       gradientTransform="matrix(0.58147,-0.58147,0.58147,0.58147,-5.20916,32)" />
    <linearGradient
       x1="32.682953"
       y1="19.206007"
       x2="27.46896"
       y2="49.282398"
       id="linearGradient1379"
       xlink:href="#linearGradient1378"
       gradientUnits="userSpaceOnUse"
       gradientTransform="matrix(0.58147,-0.58147,0.58147,0.58147,-5.21409,32)" />
  </defs>
  <metadata
     id="metadata7">
    <rdf:RDF>
      <cc:Work
         rdf:about="">
        <dc:format>image/svg+xml</dc:format>
        <dc:type
           rdf:resource="http://purl.org/dc/dcmitype/StillImage" />
        <dc:title></dc:title>
        <dc:date>2005-10-30</dc:date>
        <dc:creator>
          <cc:Agent>
            <dc:title>Jean-Victor Balin</dc:title>
          </cc:Agent>
        </dc:creator>
        <dc:description>jean.victor.balin@gmail.com</dc:description>
        <cc:license
           rdf:resource="http://web.resource.org/cc/PublicDomain" />
        <dc:subject>
          <rdf:Bag>
            <rdf:li>icon</rdf:li>
          </rdf:Bag>
        </dc:subject>
      </cc:Work>
      <cc:License
         rdf:about="http://web.resource.org/cc/PublicDomain">
        <cc:permits
           rdf:resource="http://web.resource.org/cc/Reproduction" />
        <cc:permits
           rdf:resource="http://web.resource.org/cc/Distribution" />
        <cc:permits
           rdf:resource="http://web.resource.org/cc/DerivativeWorks" />
      </cc:License>
    </rdf:RDF>
  </metadata>
  <g
     id="layer1">
    <g
       transform="translate(-14,-14)"
       id="g1370">
      <path
         d="m 14.500567,35.392081 c 0.05084,0.542535 0.508712,0.955739 1.0536,0.950811 l 12.103565,0 0,12.103565 c -0.0013,0.279832 0.109269,0.548583 0.307143,0.746457 0.197874,0.197874 0.466625,0.308456 0.746457,0.307144 l 6.578583,0 c 0.279833,0.0013 0.548584,-0.10927 0.746458,-0.307144 0.197874,-0.197874 0.308456,-0.466625 0.307143,-0.746457 l 10e-7,-12.103564 12.103563,-10e-7 c 0.279833,0.0013 0.548584,-0.109269 0.746458,-0.307143 0.197874,-0.197874 0.308456,-0.466625 0.307143,-0.746457 l 0,-6.578583 c 0.0013,-0.279833 -0.109269,-0.548584 -0.307143,-0.746458 -0.197874,-0.197874 -0.466625,-0.308457 -0.746458,-0.307143 l -12.103563,-1e-6 -10e-7,-12.103563 c 0.0013,-0.279833 -0.109269,-0.548584 -0.307142,-0.746458 -0.197875,-0.197874 -0.466626,-0.308457 -0.746459,-0.307143 l -6.578583,0 c -0.279832,-0.0013 -0.548583,0.109269 -0.746457,0.307143 -0.197874,0.197874 -0.308456,0.466625 -0.307143,0.746458 l 0,12.103564 -12.103565,0 c -0.279832,-0.0013 -0.548583,0.109269 -0.746457,0.307143 -0.197874,0.197874 -0.308456,0.466625 -0.307144,0.746458 l 0,6.578583 c -0.0017,0.03424 -0.0017,0.06855 1e-6,0.102789 z"
         id="path1349"
         style="fill:url(#linearGradient1375) #000000;fill-opacity:1;stroke:none" />
      <path
         d="m 15.429756,28.873861 c -0.0867,0.148461 -0.129227,0.318581 -0.122593,0.490375 l 0,5.271528 c 0.0023,0.495541 0.403479,0.896677 0.89902,0.899021 l 12.259369,0 0,12.259368 c 0.0023,0.495541 0.403479,0.896677 0.89902,0.899021 l 5.271529,0 c 0.49554,-0.0023 0.896676,-0.40348 0.89902,-0.899021 l 0,-12.259368 12.259369,0 c 0.495541,-0.0023 0.896676,-0.40348 0.89902,-0.899021 l 0,-5.271528 c -0.0023,-0.495541 -0.40348,-0.896677 -0.89902,-0.899021 l -12.259369,0 0,-12.259368 c -0.0023,-0.495541 -0.40348,-0.896677 -0.89902,-0.899021 l -5.271529,0 c -0.495541,0.0023 -0.896676,0.40348 -0.89902,0.899021 l 0,12.259368 -12.259369,0 c -0.312027,-0.0071 -0.605595,0.147444 -0.776427,0.408646 z"
         id="path1468"
         style="fill:url(#linearGradient1377) #000000;fill-opacity:1;stroke:none" />
      <path
         d="m 15.981092,29.262074 c -0.01422,0.03214 -0.0212,0.06702 -0.02043,0.102162 l 0,5.271528 c 0.0021,0.04384 0.01627,0.08624 0.04087,0.122594 0.02273,0.04375 0.05841,0.07943 0.102161,0.102161 0.03214,0.01422 0.06702,0.0212 0.102162,0.02043 l 12.504556,0 c 0.112169,-0.0027 0.231882,0.02756 0.306484,0.102161 0.0746,0.0746 0.104811,0.194313 0.102161,0.306484 l 0,12.504556 c 0.0021,0.04384 0.01627,0.08624 0.04087,0.122594 0.02273,0.04375 0.05841,0.07943 0.102161,0.102161 0.03214,0.01422 0.06702,0.0212 0.102162,0.02043 l 5.271528,0 c 0.04384,-0.0021 0.08624,-0.01627 0.122594,-0.04087 0.04375,-0.02273 0.07943,-0.05841 0.102161,-0.102161 0.01422,-0.03214 0.0212,-0.06702 0.02043,-0.102162 l 0,-12.504556 c -0.0027,-0.112169 0.02756,-0.231882 0.102161,-0.306484 0.0746,-0.0746 0.194312,-0.104811 0.306484,-0.102161 l 12.504556,0 c 0.04384,-0.0021 0.08624,-0.01627 0.122594,-0.04087 0.04375,-0.02273 0.07943,-0.05841 0.102162,-0.102161 0.01422,-0.03214 0.0212,-0.06702 0.02043,-0.102162 l 0,-5.271528 c -0.0021,-0.04384 -0.01627,-0.08624 -0.04087,-0.122594 -0.02273,-0.04375 -0.05841,-0.07943 -0.102161,-0.102161 -0.03214,-0.01422 -0.06702,-0.0212 -0.102162,-0.02043 l -12.504556,0 c -0.112169,0.0027 -0.231882,-0.02756 -0.306484,-0.102161 -0.0746,-0.0746 -0.104811,-0.194312 -0.102161,-0.306484 l 0,-12.504556 c -0.0021,-0.04384 -0.01627,-0.08624 -0.04087,-0.122594 -0.02273,-0.04376 -0.05841,-0.07943 -0.102161,-0.102161 -0.03214,-0.01422 -0.06702,-0.0212 -0.102162,-0.02043 l -5.271528,0 c -0.04384,0.0021 -0.08624,0.01627 -0.122594,0.04087 -0.04375,0.02273 -0.07943,0.05841 -0.102161,0.102161 -0.01422,0.03214 -0.0212,0.06702 -0.02043,0.102162 l 0,12.504556 c 0.0027,0.112169 -0.02756,0.231882 -0.102161,0.306484 -0.0746,0.0746 -0.194313,0.104811 -0.306484,0.102161 l -12.504556,0 c -0.04384,0.0021 -0.08624,0.01627 -0.122594,0.04087 -0.04376,0.02273 -0.07943,0.05841 -0.102161,0.102161 z"
         id="path1472"
         style="fill:url(#linearGradient1379) #000000;fill-opacity:1;stroke:none" />
    </g>
  </g>
</svg>
