<?xml version="1.0" encoding="UTF-8" standalone="no"?>
<!-- Created with Inkscape (http://www.inkscape.org/) -->

<svg
   xmlns:dc="http://purl.org/dc/elements/1.1/"
   xmlns:cc="http://creativecommons.org/ns#"
   xmlns:rdf="http://www.w3.org/1999/02/22-rdf-syntax-ns#"
   xmlns:svg="http://www.w3.org/2000/svg"
   xmlns="http://www.w3.org/2000/svg"
   xmlns:sodipodi="http://sodipodi.sourceforge.net/DTD/sodipodi-0.dtd"
   xmlns:inkscape="http://www.inkscape.org/namespaces/inkscape"
   width="1537"
   height="964.35999"
   id="svg2"
   inkscape:label="Pozad  "
   version="1.1"
   inkscape:version="0.48.1 r9760"
   sodipodi:docname="phone1.svg">
  <defs
     id="defs3">
    <inkscape:perspective
       sodipodi:type="inkscape:persp3d"
       inkscape:vp_x="0 : 526.18109 : 1"
       inkscape:vp_y="0 : 1000 : 0"
       inkscape:vp_z="744.09448 : 526.18109 : 1"
       inkscape:persp3d-origin="372.04724 : 350.78739 : 1"
       id="perspective9" />
    <inkscape:perspective
       id="perspective3442"
       inkscape:persp3d-origin="0.5 : 0.33333333 : 1"
       inkscape:vp_z="1 : 0.5 : 1"
       inkscape:vp_y="0 : 1000 : 0"
       inkscape:vp_x="0 : 0.5 : 1"
       sodipodi:type="inkscape:persp3d" />
  </defs>
  <sodipodi:namedview
     id="base"
     pagecolor="#ffffff"
     bordercolor="#666666"
     borderopacity="1.0"
     inkscape:pageopacity="0.0"
     inkscape:pageshadow="2"
     inkscape:zoom="0.49497475"
     inkscape:cx="397.3783"
     inkscape:cy="542.6072"
     inkscape:document-units="px"
     inkscape:current-layer="layer1"
     showgrid="false"
     inkscape:window-width="1440"
     inkscape:window-height="860"
     inkscape:window-x="0"
     inkscape:window-y="0"
     inkscape:window-maximized="0" />
  <metadata
     id="metadata6">
    <rdf:RDF>
      <cc:Work
         rdf:about="">
        <dc:format>image/svg+xml</dc:format>
        <dc:type
           rdf:resource="http://purl.org/dc/dcmitype/StillImage" />
        <dc:title />
      </cc:Work>
    </rdf:RDF>
  </metadata>
  <g
     inkscape:label="Vrstva 1"
     inkscape:groupmode="layer"
     id="layer1"
     transform="translate(0,-88.00196)">
    <g
       id="g4171"
       transform="matrix(17.1849,0,0,17.1849,17689.156,21951.679)"
       inkscape:export-filename="C:\Users\pafe\Desktop\use3712.png"
       inkscape:export-xdpi="90"
       inkscape:export-ydpi="90">
      <path
         sodipodi:nodetypes="ccccc"
         id="path7775"
         d="m -996.76063,-1253.4726 -0.66402,-9.6185 1.7366,-0.019 2.54443,9.6375 -3.61701,0 z"
         style="fill:#000000;fill-opacity:1;stroke:#000000;stroke-width:1.01157081px;stroke-linecap:butt;stroke-linejoin:miter;stroke-opacity:1"
         inkscape:connector-curvature="0" />
      <path
         sodipodi:nodetypes="ccccccccc"
         id="path7773"
         d="m -1012.6836,-1216.4007 c 0.5044,-12.6089 0.1937,-13.4374 0.1937,-13.4374 l 9.7883,-19.431 6.7418,-4.5258 23.9568,1e-4 8.18318,4.5391 10.59143,19.6698 0.50435,12.861 -59.95956,0.3242 z"
         style="fill:#000000;fill-opacity:1;stroke:#000000;stroke-width:1px;stroke-linecap:butt;stroke-linejoin:miter;stroke-opacity:1"
         inkscape:connector-curvature="0" />
      <path
         sodipodi:nodetypes="ccccc"
         id="path7775-7"
         d="m -971.95594,-1253.957 0.66402,-9.6185 -1.7366,-0.019 -2.54443,9.6375 3.61701,0 z"
         style="fill:#000000;fill-opacity:1;stroke:#000000;stroke-width:1.01157081px;stroke-linecap:butt;stroke-linejoin:miter;stroke-opacity:1"
         inkscape:connector-curvature="0" />
      <g
         transform="translate(-0.833255,-0.208314)"
         id="g4089">
        <path
           sodipodi:type="arc"
           style="fill:#ffffff;fill-opacity:1;fill-rule:nonzero;stroke:none"
           id="path3291"
           sodipodi:cx="-978.81177"
           sodipodi:cy="-1226.8743"
           sodipodi:rx="13.973208"
           sodipodi:ry="13.973208"
           d="m -964.83856,-1226.8743 c 0,7.7172 -6.25602,13.9732 -13.97321,13.9732 -7.71719,0 -13.97321,-6.256 -13.97321,-13.9732 0,-7.7172 6.25602,-13.9732 13.97321,-13.9732 7.71719,0 13.97321,6.256 13.97321,13.9732 z"
           transform="matrix(0.877049,0,0,0.877049,-124.125,-159.206)" />
        <path
           sodipodi:type="arc"
           style="fill:#000000;fill-opacity:1;fill-rule:nonzero;stroke:none"
           id="path3315"
           sodipodi:cx="-981.15771"
           sodipodi:cy="-1234.5061"
           sodipodi:rx="2.7080786"
           sodipodi:ry="2.7080786"
           d="m -978.44964,-1234.5061 c 0,1.4956 -1.21244,2.7081 -2.70807,2.7081 -1.49564,0 -2.70808,-1.2125 -2.70808,-2.7081 0,-1.4956 1.21244,-2.7081 2.70808,-2.7081 1.49563,0 2.70807,1.2125 2.70807,2.7081 z"
           transform="translate(-1.43369,-0.729177)" />
      </g>
      <g
         transform="matrix(0.999773,-0.0213265,0.0213265,0.999773,26.2707,-20.2417)"
         id="g4166">
        <path
           style="fill:#000000;fill-opacity:1;stroke:#000000;stroke-width:0.85814357px;stroke-linecap:butt;stroke-linejoin:miter;stroke-opacity:1"
           d="m -1006.679,-1251.3338 c -5.0269,0.067 -8.4536,0.062 -20.0175,0.1143 -4.0778,0.018 -0.6074,-7.991 1.2192,-11.4077 1.2261,-2.2932 3.6362,-3.9965 6.0543,-5.1981 5.6172,-2.7908 12.2321,-3.5219 18.5562,-4.1331 13.31387,-1.2867 28.48197,-0.836 40.13807,1.0465 4.7171,0.762 8.2658,1.1686 12.9887,4.2301 1.7096,1.1082 3.6469,3.6743 4.511,5.4459 1.4643,3.0022 5.398,9.8675 1.7679,10.0931 -6.967,0.433 -10.9996,0.198 -18.6192,-0.038 -3.3174,-0.1029 -0.8366,-6.4836 -2.8847,-8.9314 -0.9764,-1.1668 -2.5636,-1.8574 -4.0844,-2.2668 -10.7205,-2.8866 -24.3525,-2.981 -33.45217,-0.7804 -1.7008,0.4112 -2.6634,0.7117 -3.5367,2.8753 -1.1406,2.8257 0.3384,8.9107 -2.6407,8.9505 z"
           id="path7777-4-0"
           sodipodi:nodetypes="csaaasscssaasss"
           inkscape:connector-curvature="0" />
        <path
           style="fill:#ffffff;fill-opacity:1;stroke:none"
           d="m -962.22895,-1255.4554 c 0.0122,0.7321 0.0517,1.4614 0.12677,2.0938 l 22.18392,0 c -0.0872,-0.6312 -0.29277,-1.343 -0.57044,-2.0938 l -21.74025,0 z"
           id="path7777-4"
           inkscape:connector-curvature="0" />
        <path
           style="fill:#ffffff;fill-opacity:1;stroke:none"
           d="m -1028.58,-1255.5377 c -0.1842,0.7432 -0.2751,1.4435 -0.2862,2.0624 l 24.1923,0 c 0.1101,-0.6251 0.1544,-1.329 0.1908,-2.0624 l -24.0969,0 z"
           id="path7777-9"
           inkscape:connector-curvature="0" />
      </g>
    </g>
  </g>
</svg>
