<?xml version="1.0" encoding="UTF-8" standalone="no"?>
<!-- Created with Inkscape (http://www.inkscape.org/) -->
<svg
   xmlns:dc="http://purl.org/dc/elements/1.1/"
   xmlns:cc="http://creativecommons.org/ns#"
   xmlns:rdf="http://www.w3.org/1999/02/22-rdf-syntax-ns#"
   xmlns:svg="http://www.w3.org/2000/svg"
   xmlns="http://www.w3.org/2000/svg"
   xmlns:xlink="http://www.w3.org/1999/xlink"
   xmlns:sodipodi="http://sodipodi.sourceforge.net/DTD/sodipodi-0.dtd"
   xmlns:inkscape="http://www.inkscape.org/namespaces/inkscape"
   width="519.99078"
   height="495.08099"
   id="svg3232"
   sodipodi:version="0.32"
   inkscape:version="0.46dev+devel"
   sodipodi:docbase="/home/mart/Documents/artwork"
   sodipodi:docname="hawk88_hompage.svg"
   inkscape:output_extension="org.inkscape.output.svg.inkscape"
   version="1.0">
  <defs
     id="defs3234">
    <linearGradient
       id="linearGradient7339">
      <stop
         style="stop-color:#cac2c2;stop-opacity:1;"
         offset="0"
         id="stop7341" />
      <stop
         style="stop-color:#a6a6a6;stop-opacity:1;"
         offset="1"
         id="stop7343" />
    </linearGradient>
    <radialGradient
       inkscape:collect="always"
       xlink:href="#linearGradient7339"
       id="radialGradient7457"
       gradientUnits="userSpaceOnUse"
       gradientTransform="matrix(1.9285714,-1.4946868e-7,9.410991e-8,1.2142857,-389.08346,-63.260181)"
       cx="419.01294"
       cy="295.21448"
       fx="419.01294"
       fy="295.21448"
       r="19.191433" />
    <linearGradient
       id="linearGradient5105">
      <stop
         id="stop5107"
         offset="0"
         style="stop-color:#cbcbcb;stop-opacity:1;" />
      <stop
         style="stop-color:#dddddd;stop-opacity:1;"
         offset="0.81"
         id="stop5113" />
      <stop
         id="stop5109"
         offset="1"
         style="stop-color:#c5c5c5;stop-opacity:1;" />
    </linearGradient>
    <linearGradient
       inkscape:collect="always"
       xlink:href="#linearGradient5105"
       id="linearGradient7455"
       gradientUnits="userSpaceOnUse"
       gradientTransform="matrix(0.1708075,0,0,1.1972667,268.72184,159.70503)"
       spreadMethod="pad"
       x1="179.85097"
       y1="101.62583"
       x2="179.85097"
       y2="41.51614" />
    <filter
       inkscape:collect="always"
       id="filter3387">
      <feGaussianBlur
         inkscape:collect="always"
         stdDeviation="1.877244"
         id="feGaussianBlur3389" />
    </filter>
  </defs>
  <sodipodi:namedview
     id="base"
     pagecolor="#ffffff"
     bordercolor="#666666"
     borderopacity="1.0"
     gridtolerance="10000"
     guidetolerance="10"
     objecttolerance="10"
     inkscape:pageopacity="0.0"
     inkscape:pageshadow="2"
     inkscape:zoom="0.35"
     inkscape:cx="375"
     inkscape:cy="520"
     inkscape:document-units="px"
     inkscape:current-layer="layer1"
     inkscape:window-width="872"
     inkscape:window-height="643"
     inkscape:window-x="408"
     inkscape:window-y="21"
     showgrid="false" />
  <metadata
     id="metadata3237">
    <rdf:RDF>
      <cc:Work
         rdf:about="">
        <dc:format>image/svg+xml</dc:format>
        <dc:type
           rdf:resource="http://purl.org/dc/dcmitype/StillImage" />
      </cc:Work>
    </rdf:RDF>
  </metadata>
  <g
     inkscape:label="Layer 1"
     inkscape:groupmode="layer"
     id="layer1"
     transform="translate(-94.892435,-75.181996)">
    <g
       id="g7436"
       transform="matrix(6.4245805,0,0,6.4245805,-1623.1923,-1244.5463)">
      <rect
         style="fill:#ffffff;fill-opacity:1;stroke:none;stroke-width:0.27599999;stroke-miterlimit:4;stroke-dasharray:none;stroke-opacity:1"
         id="rect6499"
         width="80.937698"
         height="77.06044"
         x="267.42365"
         y="205.41859"
         ry="0"
         inkscape:export-xdpi="650"
         inkscape:export-ydpi="650"
         inkscape:export-filename="/home/mart/Desktop/lockcal.png" />
      <rect
         inkscape:export-ydpi="90"
         inkscape:export-xdpi="90"
         inkscape:export-filename="/var/www/callorganizer/templates/BellenTell/img/tableheader2.png"
         y="214.25754"
         x="271.57693"
         height="63.118347"
         width="73.545013"
         id="rect6501"
         style="fill:#666666;fill-opacity:1;stroke:none;stroke-opacity:1;filter:url(#filter3387)" />
      <rect
         style="fill:url(#linearGradient7455);fill-opacity:1;stroke:none;stroke-opacity:1"
         id="rect6503"
         width="73.545013"
         height="67.964912"
         x="271.57693"
         y="209.41096"
         inkscape:export-filename="/var/www/callorganizer/templates/BellenTell/img/tableheader2.png"
         inkscape:export-xdpi="90"
         inkscape:export-ydpi="90" />
      <rect
         style="fill:#e6e6e6;fill-opacity:1;stroke:none;stroke-width:0.27599999;stroke-miterlimit:4;stroke-dasharray:none;stroke-opacity:1"
         id="rect6609"
         width="66.190506"
         height="49.977177"
         x="275.25418"
         y="221.88571"
         ry="0.65431052" />
      <rect
         ry="0.091701195"
         y="212.83879"
         x="275.25418"
         height="7.0042686"
         width="66.190506"
         id="rect7061"
         style="fill:#e6e6e6;fill-opacity:1;stroke:none;stroke-width:0.27599999;stroke-miterlimit:4;stroke-dasharray:none;stroke-opacity:1" />
      <path
         id="path7063"
         d="M 280.40454,214.57466 L 278.85834,215.51051 L 277.29858,216.44637 L 278.85834,217.38223 L 280.40454,218.31808 L 280.40454,217.04314 L 281.63878,217.04314 C 281.66082,217.04314 281.67947,217.02451 281.67947,217.00246 L 281.67947,215.89028 C 281.67947,215.86823 281.66082,215.8496 281.63878,215.8496 L 280.40454,215.8496 L 280.40454,214.57466 z"
         style="opacity:0.79120878;fill:#008000;fill-opacity:1;stroke:none;stroke-width:0.8999998;stroke-miterlimit:4;stroke-dasharray:none;stroke-opacity:1" />
      <path
         style="opacity:0.79120878;fill:#008000;fill-opacity:1;stroke:none;stroke-width:0.8999998;stroke-miterlimit:4;stroke-dasharray:none;stroke-opacity:1"
         d="M 284.57351,218.31808 L 286.11971,217.38223 L 287.67947,216.44637 L 286.11971,215.51051 L 284.57351,214.57466 L 284.57351,215.8496 L 283.33927,215.8496 C 283.31723,215.8496 283.29858,215.86823 283.29858,215.89028 L 283.29858,217.00246 C 283.29858,217.02451 283.31723,217.04314 283.33927,217.04314 L 284.57351,217.04314 L 284.57351,218.31808 z"
         id="path7074" />
      <g
         transform="matrix(0.6537253,0,0,0.6537253,157.02933,21.84231)"
         id="g7287">
        <path
           style="opacity:0.79120878;fill:#008000;fill-opacity:1;stroke:none;stroke-width:0.8999998;stroke-miterlimit:4;stroke-dasharray:none;stroke-opacity:1"
           d="M 207.92354,298.34502 L 207.97612,300.89251 L 210.68046,300.14055 L 209.75847,299.28202 C 209.75847,299.28202 211.54444,297.57535 210.06542,295.49701 C 208.54849,293.36539 206.45233,294.00276 206.51789,294.71359 C 206.57606,295.34437 207.43808,294.69842 208.58704,296.06475 C 209.73999,297.43582 208.9263,298.7189 208.9263,298.7189 L 207.92354,298.34502 z"
           id="path7278"
           sodipodi:nodetypes="cccczzzcc" />
        <path
           sodipodi:nodetypes="cccczzzcc"
           id="path7285"
           d="M 205.83874,296.99004 L 205.78616,294.44255 L 203.08182,295.19451 L 204.00381,296.05304 C 204.00381,296.05304 202.21784,297.75971 203.69686,299.83805 C 205.21379,301.96967 207.30995,301.3323 207.24439,300.62147 C 207.18622,299.99069 206.3242,300.63664 205.17524,299.27031 C 204.02229,297.89924 204.83598,296.61616 204.83598,296.61616 L 205.83874,296.99004 z"
           style="opacity:0.79120878;fill:#008000;fill-opacity:1;stroke:none;stroke-width:0.8999998;stroke-miterlimit:4;stroke-dasharray:none;stroke-opacity:1" />
      </g>
      <rect
         style="fill:#ffffff;fill-opacity:1;stroke:#b6b6b6;stroke-width:0.27599999;stroke-miterlimit:4;stroke-dasharray:none;stroke-opacity:1"
         id="rect7291"
         width="36.695004"
         height="2.8918188"
         x="296.85602"
         y="214.89502"
         ry="0.037860233" />
      <path
         sodipodi:type="arc"
         style="opacity:0.47252748;fill:url(#radialGradient7457);fill-opacity:1;stroke:none;stroke-width:1.30000019;stroke-miterlimit:4;stroke-dasharray:none;stroke-opacity:1"
         id="path7363"
         sodipodi:cx="419.01294"
         sodipodi:cy="295.21448"
         sodipodi:rx="19.191433"
         sodipodi:ry="19.191433"
         d="M 438.20437,295.21448 A 19.191433,19.191433 0 1 1 399.82151,295.21448 A 19.191433,19.191433 0 1 1 438.20437,295.21448 z"
         transform="matrix(1.1785714,0,0,1.1785714,-172.01216,-94.524278)" />
      <path
         id="path7313"
         d="M 321.64275,230.7891 C 318.56393,230.7891 315.63799,231.40348 312.96193,232.51916 C 313.30395,232.8482 313.80294,233.2971 313.61325,234.05586 C 313.41212,234.86038 313.5341,235.64005 314.2035,236.1421 C 314.81569,236.60125 315.09906,236.98807 315.09906,237.93322 C 315.09906,238.80097 315.00004,239.37753 314.80393,240.16194 C 314.65235,240.76827 314.47593,241.65852 313.90837,241.80041 C 313.18173,241.98207 312.83404,242.01547 312.42256,242.83845 C 312.06047,243.56262 311.26869,244.44009 310.78409,244.92469 C 310.37906,245.32972 310.23839,245.64023 309.59341,245.96273 C 309.0015,246.25868 307.82032,245.76849 307.65981,246.41051 C 307.49047,247.08789 307.81247,247.68161 307.81247,248.49675 C 307.81247,249.83076 306.0666,248.26155 305.12579,248.49675 C 304.42756,248.67131 303.6227,248.45782 302.89707,248.63923 C 302.35379,248.77505 301.49661,249.05877 301.2586,249.53479 C 300.97023,250.11153 299.93894,251.03753 300.51569,251.3259 C 300.97296,251.55454 301.68297,251.42945 302.44929,251.62103 C 302.73342,251.69206 304.17464,252.8446 304.24041,252.81172 C 305.16577,252.34904 305.43212,252.51763 306.02135,253.10685 C 306.52508,253.61058 306.99213,254.09189 307.65981,254.59266 C 308.63362,255.32302 308.69785,255.88233 308.69785,256.97403 C 308.69785,257.85851 308.87798,258.4975 309.44075,259.06028 C 310.25841,259.87794 310.57294,260.26796 311.23187,261.14653 C 311.60111,261.63884 312.69312,262.88746 312.56504,263.5279 C 312.40456,264.33029 312.12873,265.45299 311.67965,266.05175 C 311.42142,266.39606 310.52536,267.17274 310.78409,267.69021 C 311.25828,268.63858 311.0711,268.82807 311.23187,269.47116 C 311.42327,270.23674 310.60757,272.04677 310.33631,272.60561 C 310.12852,272.60561 309.92274,272.6057 309.71553,272.61579 C 313.18,274.77286 317.26397,276.02502 321.64275,276.02502 C 328.12058,276.02502 333.96257,273.2915 338.08847,268.92161 C 337.4378,268.71573 336.57857,268.46906 336.53142,268.28047 C 336.35406,267.57103 336.82655,267.00197 336.82655,266.2044 C 336.82655,265.39135 337.03647,264.80518 336.82655,263.9655 C 336.5844,262.99689 336.34448,263.1638 335.63586,262.63234 C 334.30507,261.63424 335.43116,262.23661 334.7403,262.92747 C 334.2903,263.37747 333.39221,264.12681 332.80671,264.56593 C 332.20834,265.01471 331.33931,265.44513 330.72046,265.90927 C 330.24684,266.26449 329.37396,266.68522 329.23465,267.24243 C 329.05657,267.95476 329.2795,268.52282 329.68243,269.32868 C 330.1712,270.30622 330.13566,270.50846 329.68243,271.41493 C 329.33171,272.11636 328.78958,272.16088 328.19661,272.60561 C 327.49951,273.12844 326.56536,273.04321 325.52011,273.04322 C 325.0911,273.04322 323.729,273.28154 323.729,272.45296 C 323.729,271.6318 323.17936,270.99735 322.98609,270.22424 C 322.8454,269.66148 322.98608,268.85104 322.98609,268.13799 C 322.98609,267.43488 323.27901,266.50394 323.57634,265.90927 C 324.02063,265.02071 323.88623,264.41558 322.98609,263.9655 C 322.17962,263.56227 322.3195,262.90714 322.53831,262.03191 C 322.72863,261.27063 322.91446,260.53669 323.28122,259.80319 C 323.66724,259.03114 323.80304,258.45881 324.02412,257.57447 C 324.22903,256.75482 324.27604,255.82923 323.88165,255.04044 C 323.55207,254.38129 323.01979,253.55717 322.83344,252.81172 C 322.71019,252.31872 322.23496,250.88634 322.69096,250.43035 C 323.32169,249.79962 324.6438,249.96363 325.21481,249.98257 C 325.9277,250.51723 327.12137,250.41174 327.74883,250.72547 C 328.28305,250.99258 329.27972,250.60045 329.83508,250.87812 C 330.49799,251.20958 331.21888,251.64126 331.76867,251.91616 C 332.70809,252.38587 332.83775,252.32056 333.84474,252.06881 C 334.60244,251.87939 335.47104,252.34159 335.78851,252.65907 C 336.60446,253.47501 336.70366,253.68386 336.96902,254.74531 C 337.16406,255.52547 336.76772,256.35897 336.53142,256.83156 C 336.11032,257.67377 336.97766,258.0207 337.56946,258.6125 C 338.26744,259.31049 338.34239,259.34325 338.60749,260.40362 C 338.78713,261.12219 339.86627,260.49279 340.10348,261.44165 C 340.38192,262.5554 340.79557,261.94025 341.29417,261.44165 C 341.86698,260.86883 341.98831,260.1369 342.47468,259.65053 C 342.87816,259.24706 343.10268,257.02658 343.22776,256.52625 C 343.4282,255.72449 343.19246,254.61428 343.07511,254.14488 C 342.87052,253.32654 342.25376,252.93557 342.03708,252.06881 C 341.87485,251.41992 342.03708,250.50273 342.03708,249.82991 C 342.03708,249.26677 341.18706,248.15022 340.98886,247.75384 C 340.84958,247.47529 339.85465,247.05723 339.6557,246.85828 C 339.0665,246.26908 338.46501,246.28219 338.46502,245.21982 C 338.46502,244.27523 337.96048,243.90554 337.27433,243.734 C 336.26165,243.48083 335.94425,244.45038 335.63586,245.06717 C 335.17124,245.99641 334.9463,246.41051 333.84474,246.41051 C 333.17494,246.41051 332.2621,246.2769 331.61602,246.11538 C 330.68333,245.88221 330.308,245.65083 329.52978,245.06717 C 328.93758,244.62302 327.98002,244.35152 327.30106,244.18178 C 326.72641,244.03812 326.76062,245.59209 326.85328,245.96273 C 327.07035,246.83101 327.90148,246.54163 327.90149,247.60119 C 327.90149,248.10843 326.20285,247.89632 325.81524,247.89632 C 325.07121,247.89632 324.32038,247.89632 323.57634,247.89632 C 322.48132,247.89632 322.34141,247.94012 321.94805,247.15341 C 321.66524,246.58779 321.50027,245.73471 321.50027,245.06717 C 321.50027,244.32314 321.50027,243.58247 321.50027,242.83845 C 321.50027,242.06079 321.90784,241.84353 322.69096,241.64776 C 323.64154,241.41011 324.03842,241.64365 324.62455,241.0575 C 325.24801,240.43404 324.67437,239.99938 325.81524,239.71416 C 326.9787,239.4233 326.80262,239.36769 327.30106,238.37083 C 327.60919,237.75455 327.71527,237.33473 327.90149,236.58988 C 328.08404,235.85965 328.2893,235.61867 328.49174,234.80894 C 328.66717,234.10723 328.6444,233.34644 328.64439,232.57004 C 328.64439,232.19324 328.27863,231.89482 327.88113,231.66431 C 325.8988,231.09633 323.80668,230.7891 321.64275,230.7891 z M 343.27865,260.02708 C 343.13815,260.27564 342.99971,260.53222 342.92246,260.84122 C 342.74182,261.56378 342.34563,262.11052 342.17955,262.77481 C 342.14501,262.91297 342.08759,263.07808 342.00654,263.25312 C 342.50965,262.21667 342.93658,261.14425 343.27865,260.02708 z M 342.00654,263.25312 C 341.76341,263.77825 341.36314,264.41781 341.14152,264.86106 C 341.44981,264.33818 341.7402,263.80181 342.00654,263.25312 z M 340.85657,265.32919 C 340.56112,265.75268 340.233,266.08784 339.95083,266.65218 C 339.93831,266.67722 339.93196,266.69894 339.9203,266.72342 C 340.24918,266.27301 340.56101,265.80392 340.85657,265.32919 z"
         style="opacity:0.47252748;fill:#666666;fill-opacity:1;stroke:none;stroke-width:1.30000019;stroke-miterlimit:4;stroke-dasharray:none;stroke-opacity:1" />
      <rect
         y="234.44162"
         x="276.56226"
         height="35.526997"
         width="13.136992"
         id="rect7414"
         style="opacity:0.47252748;fill:#cccccc;fill-opacity:1;stroke:none;stroke-width:1.30000019;stroke-miterlimit:4;stroke-dasharray:none;stroke-opacity:1" />
      <rect
         style="opacity:0.47252748;fill:#cccccc;fill-opacity:1;stroke:none;stroke-width:1.30000019;stroke-miterlimit:4;stroke-dasharray:none;stroke-opacity:1"
         id="rect7416"
         width="48.092815"
         height="35.526997"
         x="290.61313"
         y="234.44162" />
      <rect
         y="223.47508"
         x="276.56226"
         height="9.9384203"
         width="62.257919"
         id="rect7418"
         style="opacity:0.47252748;fill:#cccccc;fill-opacity:1;stroke:none;stroke-width:1.30000019;stroke-miterlimit:4;stroke-dasharray:none;stroke-opacity:1" />
      <path
         sodipodi:nodetypes="cccccccc"
         id="path7434"
         d="M 335.43117,218.26097 L 336.95378,217.3394 L 338.48974,216.41782 L 336.95378,215.49624 L 335.43117,214.57467 L 335.43117,215.83015 L 335.43117,217.00548 L 335.43117,218.26097 z"
         style="opacity:0.79120878;fill:#008000;fill-opacity:1;stroke:none;stroke-width:0.8999998;stroke-miterlimit:4;stroke-dasharray:none;stroke-opacity:1" />
    </g>
  </g>
</svg>
